HIERARCHY
ROOT Hips
{
	OFFSET 0.0000 0.0000 0.0000
	CHANNELS 6 Xposition Yposition Zposition Zrotation Xrotation Yrotation
	JOINT Ab
	{
		OFFSET -0.0000 8.0846 -0.0000
		CHANNELS 3 Zrotation Xrotation Yrotation
		JOINT Chest
		{
			OFFSET -0.0000 25.0068 -0.0000
			CHANNELS 3 Zrotation Xrotation Yrotation
			JOINT Neck
			{
				OFFSET -0.0000 25.0068 0.0000
				CHANNELS 3 Zrotation Xrotation Yrotation
				JOINT Head
				{
					OFFSET -0.0000 10.7556 0.0000
					CHANNELS 3 Zrotation Xrotation Yrotation
					End Site
					{
						OFFSET -0.0000 16.6222 0.0000
					}
				}
			}
			JOINT LeftCollar
			{
				OFFSET -0.0000 25.0068 0.0000
				CHANNELS 3 Zrotation Xrotation Yrotation
				JOINT LeftShoulder
				{
					OFFSET 19.5556 -0.0000 0.0000
					CHANNELS 3 Zrotation Xrotation Yrotation
					JOINT LeftElbow
					{
						OFFSET 27.1828 0.0000 0.0000
						CHANNELS 3 Zrotation Xrotation Yrotation
						JOINT LeftWrist
						{
							OFFSET 23.3157 0.0000 0.0000
							CHANNELS 3 Zrotation Xrotation Yrotation
							End Site
							{
								OFFSET 0.0000 -14.6667 0.0000
							}
						}
					}
				}
			}
			JOINT RightCollar
			{
				OFFSET -0.0000 25.0068 0.0000
				CHANNELS 3 Zrotation Xrotation Yrotation
				JOINT RightShoulder
				{
					OFFSET -19.5556 0.0000 0.0000
					CHANNELS 3 Zrotation Xrotation Yrotation
					JOINT RightElbow
					{
						OFFSET -27.1828 0.0000 0.0000
						CHANNELS 3 Zrotation Xrotation Yrotation
						JOINT RightWrist
						{
							OFFSET -23.3157 0.0000 0.0000
							CHANNELS 3 Zrotation Xrotation Yrotation
							End Site
							{
								OFFSET -0.0000 -14.6667 0.0000
							}
						}
					}
				}
			}
		}
	}
	JOINT LeftHip
	{
		OFFSET 11.7333 0.0000 0.0000
		CHANNELS 3 Zrotation Xrotation Yrotation
		JOINT LeftKnee
		{
			OFFSET -0.0000 -40.8688 0.0000
			CHANNELS 3 Zrotation Xrotation Yrotation
			JOINT LeftAnkle
			{
				OFFSET -0.0000 -44.4337 0.0000
				CHANNELS 3 Zrotation Xrotation Yrotation
				End Site
				{
					OFFSET -0.0000 -4.8889 16.6222
				}
			}
		}
	}
	JOINT RightHip
	{
		OFFSET -11.7333 0.0000 0.0000
		CHANNELS 3 Zrotation Xrotation Yrotation
		JOINT RightKnee
		{
			OFFSET -0.0000 -40.8688 0.0000
			CHANNELS 3 Zrotation Xrotation Yrotation
			JOINT RightAnkle
			{
				OFFSET -0.0000 -44.4337 0.0000
				CHANNELS 3 Zrotation Xrotation Yrotation
				End Site
				{
					OFFSET -0.0000 -4.8889 16.6222
				}
			}
		}
	}
}
MOTION
Frames: 12
Frame Time: 0.010000
-8.4723 87.1577 101.6379 2.9776 0.4929 174.1265 358.1529 2.3428 357.4605 2.0548 13.2105 357.1838 6.6208 345.4593 2.4909 356.7241 14.9294 2.0721 339.7215 358.8816 6.2925 311.2767 35.3581 342.2567 23.5513 352.2723 324.0527 82.3281 359.0472 350.2129 20.3576 358.7905 353.2605 65.2975 34.1815 1.5076 341.7064 355.2349 28.9252 279.9880 352.7940 26.1897 358.1231 4.6223 357.6419 357.9313 9.9543 357.7196 0.2160 349.3876 20.4101 2.4143 334.3550 3.7148 0.1867 17.6475 1.7526 356.6645 353.0779 343.1328 
-8.3799 87.0732 101.1951 2.8756 0.5079 174.2767 358.1344 2.3398 357.4487 2.0593 13.2908 357.1702 6.6615 345.3595 2.4085 356.6517 15.0093 1.9882 339.6865 358.8769 6.1989 311.1980 35.1968 342.4530 23.3795 352.3251 323.8989 82.3479 359.1000 349.8759 20.3645 358.8033 353.2452 65.4341 33.9980 1.3193 341.7405 355.2251 29.0255 280.0673 353.0008 26.3633 358.0977 4.8310 357.5936 357.8753 10.1258 357.6834 0.3230 349.1587 20.3643 2.3180 334.2897 3.7153 0.1910 17.3222 1.8285 356.9791 352.9618 342.7183 
-8.2805 86.9859 100.7431 2.7900 0.5295 174.4179 358.1434 2.3485 357.4408 2.0517 13.3635 357.1624 6.6985 345.2680 2.3677 356.6417 15.1193 1.9454 339.6478 358.8954 6.1589 311.1498 35.1041 342.5906 23.1776 352.3900 323.8029 82.4970 359.1623 349.6307 20.3582 358.7915 353.2236 65.5640 33.8282 1.1560 341.7565 355.2465 29.0976 280.1764 353.0813 26.5126 358.0875 5.0750 357.6742 357.8646 10.2657 357.4866 0.1989 348.8961 20.2610 2.2413 334.2396 3.6857 0.2000 17.0681 1.7223 357.2464 352.7379 342.6206 
-8.1755 86.9013 100.2780 2.6957 0.5549 174.5559 358.1294 2.3586 357.4447 2.0703 13.4242 357.1621 6.7696 345.1977 2.3374 356.5804 15.2103 1.9142 339.5890 358.8849 6.1757 311.1794 35.1857 342.6521 23.1115 352.3858 323.8247 82.5088 359.2000 349.4597 20.3358 358.7748 353.1983 65.6930 33.7450 0.9756 341.7788 355.2344 29.1236 280.3012 353.1317 26.6428 358.0740 5.3383 357.7438 357.8517 10.3846 357.3577 359.9167 348.5840 20.1236 2.1497 334.1978 3.6123 0.2179 16.9174 1.7441 357.4830 352.5438 342.5329 
-8.0696 86.8145 99.8102 2.5828 0.5498 174.7057 358.1238 2.3191 357.4351 2.0607 13.5230 357.1525 6.8135 345.1283 2.2998 356.5771 15.2593 1.8679 339.5613 358.9037 6.1354 311.1458 35.1044 342.7995 22.9136 352.4510 323.7951 82.4510 359.3933 349.1560 20.3275 358.7829 353.1336 65.7722 33.6661 0.9026 341.8680 355.2409 29.0843 280.2404 353.2125 26.7826 358.0467 5.5560 357.8349 357.8518 10.5404 357.0980 359.8493 348.3382 20.1241 2.0502 334.1194 3.6973 0.2895 16.8506 1.4903 357.8086 352.1077 342.3825 
-7.9562 86.7289 99.3403 2.4880 0.5276 174.8309 358.0980 2.3220 357.4668 2.1165 13.5254 357.1768 6.8260 345.0867 2.2614 356.5901 15.3115 1.8272 339.4892 358.9198 6.0426 310.9596 34.7745 343.1223 22.6071 352.5664 323.6375 82.4961 359.4372 348.7407 20.2990 358.7598 353.0706 65.8797 33.6796 0.7534 341.8061 355.2238 29.0732 280.2818 353.1256 26.7540 358.0462 5.7838 357.8458 357.8193 10.6507 356.9575 359.5990 348.0842 20.0441 2.0020 334.0049 3.6951 0.2604 16.9638 1.5140 358.1154 351.6652 342.2542 
-7.8242 86.6443 98.8461 2.3914 0.5538 174.9499 358.0757 2.3283 357.4719 2.1528 13.5783 357.1762 6.5415 345.2315 2.1295 357.1082 15.0141 1.6624 339.4689 358.9368 5.9200 310.6852 34.3345 343.5085 22.2028 352.7120 323.4878 82.7300 359.3941 348.3170 20.2929 358.7233 353.0043 65.9629 33.6010 0.6277 341.8131 355.2421 29.0423 280.4694 353.0477 26.6951 358.0480 6.0585 357.9974 357.8297 10.8041 356.6546 359.4132 347.8427 19.9055 1.9721 333.9613 3.7434 0.2434 17.1694 1.6539 358.0481 351.3520 342.0787 
-7.7051 86.5598 98.3510 2.2805 0.5977 175.1584 358.0758 2.3825 357.4415 2.1746 13.6098 357.1414 6.5425 345.1523 2.0582 357.1394 15.0660 1.5832 339.4264 358.9126 5.9010 310.5920 34.3819 343.7008 22.1005 352.6939 323.4832 82.7240 359.4338 348.1082 20.3263 358.7347 352.9301 65.9522 33.6991 0.5204 341.8252 355.2718 29.0564 280.3236 353.2954 26.6576 358.0549 6.2325 357.6495 357.7163 11.1399 356.7799 359.6955 347.6387 19.9334 1.8538 333.9563 3.6705 0.2445 17.4317 1.8947 357.9033 351.0869 341.8650 
-7.5683 86.4705 97.8488 2.1899 0.5519 175.3208 358.1135 2.3542 357.4090 2.1665 13.5983 357.1115 6.5572 345.1130 2.0397 357.1755 15.1138 1.5622 339.3918 358.9298 5.8965 310.3810 34.1273 344.0313 21.7860 352.8168 323.4626 82.7935 359.4417 347.6516 20.3366 358.7083 352.8966 66.0155 33.6613 0.3908 341.8475 355.2450 29.0648 280.3678 353.3592 26.6686 358.0761 6.4539 357.5635 357.7041 11.2531 356.6731 359.8595 347.4490 19.9746 1.8147 333.8663 3.7536 0.2568 17.8110 1.8284 358.0839 350.8175 341.8662 
-7.4081 86.3940 97.3791 2.1070 0.5060 175.4772 358.1246 2.2740 357.4002 2.1891 13.6707 357.1007 6.5321 345.0425 2.0090 357.2472 15.1514 1.5197 339.3887 358.9452 5.8839 310.1096 33.8716 344.3479 21.4735 352.9205 323.3910 82.9045 359.5114 347.2006 20.3252 358.7332 352.8818 66.0794 33.5930 0.3101 341.9038 355.2792 29.0281 280.5165 353.1881 26.6777 358.1065 6.6840 357.5771 357.7085 11.3158 356.4841 359.8053 347.2050 19.9645 1.8105 333.8498 3.8881 0.2892 18.0899 1.8380 357.8280 350.5958 341.7138 
-7.2489 86.3171 96.8943 2.0199 0.4866 175.6799 358.1351 2.2285 357.3928 2.2138 13.7179 357.0898 6.5646 344.9990 1.9598 357.2434 15.1690 1.4656 339.3711 358.9580 5.7790 309.8182 33.5399 344.7616 21.1510 353.0241 323.3210 82.9279 359.4971 346.6823 20.3230 358.7131 352.8158 66.1541 33.6098 0.2163 341.8475 355.2788 29.0773 280.4550 353.4127 26.7566 358.1354 6.9669 357.4700 357.7009 11.3267 356.5076 359.5712 346.8202 19.6472 1.7932 333.8862 3.9381 0.2432 18.4701 2.1585 357.6180 350.3421 341.3368 
-7.0734 86.2398 96.3991 1.9355 0.4431 175.8788 358.1546 2.1400 357.3650 2.2365 13.7889 357.0590 6.5344 344.9120 1.9170 357.3430 15.2050 1.4093 339.3293 358.9209 5.9081 309.8084 33.9210 344.8461 21.2533 352.9362 323.5300 82.7912 359.4547 346.5388 20.3224 358.6998 352.7750 66.2291 33.5960 0.1053 341.8486 355.2703 29.0418 280.5181 353.2202 26.7621 358.1981 7.2228 357.2468 357.6392 11.3524 356.5979 0.7004 346.7878 19.8868 1.7880 333.9256 4.0258 0.2329 18.9265 2.4774 357.9740 350.0828 341.0742 
